<svg width="93" height="32" viewBox="0 0 93 32" fill="none" xmlns="http://www.w3.org/2000/svg">
<path d="M13.4269 2.90928V31.6846H7.34342V8.6861H7.17525L0.587311 12.8209V7.41994L7.70941 2.90928H13.4269Z" fill="#D9D9D9"/>
<path d="M15.9547 2.41517H22.7207V31.685H15.9547V2.41517Z" fill="#D9D9D9"/>
<path d="M24.5974 3.67975C24.5974 1.62226 26.2196 0 28.6332 0C31.0073 0 32.6295 1.62226 32.6295 3.67975C32.6295 5.69768 31.0073 7.31994 28.6332 7.31994C26.2196 7.31994 24.5974 5.69768 24.5974 3.67975ZM25.2305 9.61484H31.9965V31.6934H25.2305V9.61484Z" fill="#D9D9D9"/>
<path d="M34.5328 2.41517H41.2988V18.5982L47.9857 9.61641H56.3344L47.1548 20.6952L56.4135 31.6949H48.0252L41.2988 22.4362V31.6949H34.5328V2.41517Z" fill="#D9D9D9"/>
<path d="M57.6798 15.2337H48.0452V9.61514H57.6798V4.234H64.4458V9.61514H68.8773V15.2337H64.4458V24.0968C64.4458 25.4025 64.9998 25.9564 66.5033 25.9564H68.9169V31.6937H65.4746C60.8848 31.6937 57.6798 29.7549 57.6798 24.0176V15.2337Z" fill="#D9D9D9"/>
<path d="M81.1953 32.0003C74.7062 32.0003 70.0373 27.6479 70.0373 20.6445C70.0373 13.6411 74.6271 9.29862 81.1953 9.29862C87.6348 9.29862 92.1851 13.5719 92.1851 20.2983C92.1851 20.9314 92.1455 21.604 92.0664 22.2767H76.7637C77.0011 25.1651 78.7817 26.5104 80.9579 26.5104C82.8571 26.5104 83.9254 25.5608 84.4793 24.3737H91.6806C90.6024 28.6866 86.6852 32.0003 81.1953 32.0003ZM76.8033 18.5178H85.2707C85.2707 16.1042 83.3715 14.7193 81.1161 14.7193C78.9004 14.7193 77.199 16.0646 76.8033 18.5178Z" fill="#D9D9D9"/>
</svg>
