<svg width="31" height="32" viewBox="0 0 31 32" fill="none" xmlns="http://www.w3.org/2000/svg">
<path d="M17.8893 19.2359C17.077 20.0305 16.5733 21.1378 16.5733 22.3606C16.5733 23.5835 17.077 24.6907 17.8893 25.4854V31.5037C14.0649 30.225 11.3095 26.6152 11.3095 22.3606V10.1359C11.3223 10.1134 11.335 10.0928 11.3448 10.0732C12.5295 7.83617 13.6475 7.24434 15.0957 7.24434C17.1936 7.24434 17.7992 8.52501 17.8893 8.75332V19.2359Z" fill="#D9D9D9"/>
<path d="M20.9484 12.7224C19.8784 12.7224 18.8505 12.8968 17.8893 13.2182C14.0649 14.4969 11.3095 18.1067 11.3095 22.3612C11.3095 26.6158 14.0649 30.2256 17.8893 31.5043C18.8505 31.8257 19.8794 32.0001 20.9484 32.0001C26.272 32.0001 30.5873 27.6848 30.5873 22.3612C30.5873 17.0377 26.272 12.7224 20.9484 12.7224ZM20.9484 26.7373C19.7579 26.7373 18.6781 26.2591 17.8893 25.486C17.077 24.6923 16.5733 23.5841 16.5733 22.3612C16.5733 21.1384 17.077 20.0311 17.8893 19.2365C18.6791 18.4634 19.7589 17.9852 20.9484 17.9852C23.3608 17.9852 25.3235 19.9478 25.3235 22.3603C25.3245 24.7746 23.3618 26.7373 20.9484 26.7373Z" fill="#D9D9D9"/>
<path d="M17.887 3.28076V8.75426C17.7959 8.52595 17.1913 7.24528 15.0935 7.24528C13.6462 7.24528 12.5272 7.83711 11.3426 10.0741C11.3318 10.0937 11.32 10.1153 11.3073 10.1368C10.9202 10.7875 9.80712 12.1789 8.645 12.706C4.65207 14.5149 0.814941 10.9296 0.814941 10.9296C0.814941 10.9296 3.88092 8.80521 6.84598 5.86269C8.44707 4.27434 9.93058 1.86781 11.5836 0.862472C12.5184 0.294153 13.4777 0.00019455 14.3566 0.00019455C15.3992 0.00019455 16.3271 0.359802 16.9229 0.954577C17.5186 1.55033 17.887 2.37243 17.887 3.28076Z" fill="#D9D9D9"/>
<path d="M17.8997 8.75234V13.2176C14.0753 14.4963 11.32 18.1061 11.32 22.3606V10.1359C11.3327 10.1134 11.3454 10.0928 11.3552 10.0732C12.5399 7.83617 13.6579 7.24434 15.1061 7.24434C17.204 7.24336 17.8096 8.52403 17.8997 8.75234Z" fill="#D9D9D9"/>
</svg>
