<svg width="16" height="16" viewBox="0 0 16 16" fill="none" xmlns="http://www.w3.org/2000/svg">
<g clip-path="url(#clip0_256_88)">
<path fill-rule="evenodd" clip-rule="evenodd" d="M3.71868 3.56179C2.55631 4.68332 1.83334 6.25725 1.83334 8.00004C1.83334 11.4058 4.59425 14.1667 8.00001 14.1667C8.08502 14.1667 8.16962 14.165 8.2538 14.1616C8.11684 13.5538 8.09825 12.7368 8.51599 11.9496C8.95071 11.1303 9.85084 10.7749 10.5126 10.6122C10.8593 10.527 11.1806 10.4849 11.4141 10.464C11.5315 10.4534 11.6282 10.4481 11.6968 10.4454C11.7311 10.444 11.7585 10.4433 11.778 10.443L11.8013 10.4426L11.807 10.4426C12.9219 10.431 13.4243 10.0684 13.6909 9.72246C13.9186 9.42697 14.0046 9.13146 14.0918 8.83169C14.1029 8.79356 14.114 8.75536 14.1254 8.71709C14.1527 8.48185 14.1667 8.24258 14.1667 8.00004C14.1667 6.31732 13.4927 4.79202 12.4 3.67936C12.3941 3.70206 12.3882 3.72444 12.3821 3.74644C12.2736 4.14175 12.0983 4.54747 11.9079 4.83654C11.7373 5.09546 11.4063 5.35666 11.1317 5.554C10.9509 5.68389 10.7627 5.79424 10.592 5.89263C10.5713 5.90452 10.551 5.91622 10.5309 5.92777C10.3788 6.01523 10.2421 6.09389 10.1104 6.18086C9.82254 6.37107 9.59981 6.57579 9.44989 6.8849C9.39739 6.99315 9.39577 7.09876 9.42681 7.21183C9.47651 7.39284 9.5104 7.59647 9.51094 7.80407C9.51205 8.23673 9.29167 8.58786 9.00843 8.81613C8.72855 9.0417 8.36276 9.1707 7.99455 9.16668C6.3577 9.14881 5.35129 7.82042 5.21855 6.34303C5.16575 5.75533 4.90809 5.16085 4.58275 4.64127C4.28396 4.16411 3.9473 3.78068 3.71868 3.56179ZM4.49671 2.92445C4.77341 3.20312 5.12057 3.61591 5.4303 4.11056C5.80198 4.70415 6.14251 5.45177 6.21454 6.25354C6.31519 7.37372 7.02327 8.15601 8.00547 8.16674C8.14051 8.16821 8.28084 8.11818 8.38093 8.03751C8.47767 7.95955 8.51112 7.87726 8.51094 7.80664C8.51067 7.70298 8.49319 7.58836 8.4625 7.47659C8.38173 7.18242 8.37018 6.81954 8.55013 6.44851C8.8068 5.91932 9.18719 5.59229 9.55919 5.34652C9.71863 5.24118 9.88398 5.14616 10.0332 5.06041C10.0533 5.04885 10.0731 5.03746 10.0926 5.02624C10.2628 4.92816 10.4121 4.83963 10.5482 4.74189C10.8356 4.5354 11.0173 4.37058 11.0728 4.28635C11.1945 4.10174 11.3313 3.79693 11.4178 3.48171C11.4864 3.23195 11.5054 3.04028 11.499 2.92148C10.5049 2.23525 9.29938 1.83337 8.00001 1.83337C6.69877 1.83337 5.49166 2.23641 4.49671 2.92445ZM15.1195 8.8269C15.1507 8.5556 15.1667 8.27969 15.1667 8.00004C15.1667 4.042 11.9581 0.833374 8.00001 0.833374C4.04197 0.833374 0.833344 4.042 0.833344 8.00004C0.833344 11.9581 4.04197 15.1667 8.00001 15.1667C11.6403 15.1667 14.6466 12.4526 15.1059 8.93765C15.1181 8.89528 15.1286 8.86007 15.1381 8.83346L15.1195 8.8269ZM13.2698 11.2045C12.8727 11.35 12.3941 11.4365 11.8174 11.4425L11.8122 11.4426V11.4426L11.8104 11.4426L11.7967 11.4428C11.7837 11.443 11.7633 11.4435 11.7363 11.4446C11.6822 11.4467 11.6023 11.4511 11.5035 11.46C11.3047 11.4778 11.0358 11.5133 10.7513 11.5833C10.1505 11.731 9.62333 11.9962 9.39932 12.4183C9.09571 12.9905 9.139 13.6131 9.25227 14.0395C10.9516 13.689 12.3954 12.6393 13.2698 11.2045Z" fill="white"/>
</g>
<defs>
<clipPath id="clip0_256_88">
<rect width="16" height="16" fill="white"/>
</clipPath>
</defs>
</svg>
