<svg width="16" height="16" viewBox="0 0 16 16" fill="none" xmlns="http://www.w3.org/2000/svg">
<g clip-path="url(#clip0_1_1739)">
<path d="M8.00469 1.44095C10.1434 1.44095 10.3967 1.45032 11.2378 1.48782C12.0195 1.5222 12.4417 1.65345 12.7231 1.76282C13.0952 1.90657 13.3641 2.08157 13.6424 2.3597C13.9238 2.64095 14.0958 2.90657 14.2396 3.27845C14.349 3.5597 14.4804 3.9847 14.5148 4.76282C14.5523 5.60657 14.5617 5.8597 14.5617 7.99407C14.5617 10.1316 14.5523 10.3847 14.5148 11.2253C14.4804 12.0066 14.349 12.4284 14.2396 12.7097C14.0958 13.0816 13.9207 13.3503 13.6424 13.6284C13.361 13.9097 13.0952 14.0816 12.7231 14.2253C12.4417 14.3347 12.0164 14.4659 11.2378 14.5003C10.3936 14.5378 10.1403 14.5472 8.00469 14.5472C5.86594 14.5472 5.61266 14.5378 4.77155 14.5003C3.98984 14.4659 3.56772 14.3347 3.2863 14.2253C2.91421 14.0816 2.6453 13.9066 2.36701 13.6284C2.0856 13.3472 1.91362 13.0816 1.76979 12.7097C1.66035 12.4284 1.52902 12.0034 1.49463 11.2253C1.4571 10.3816 1.44772 10.1284 1.44772 7.99407C1.44772 5.85657 1.4571 5.60345 1.49463 4.76282C1.52902 3.98157 1.66035 3.5597 1.76979 3.27845C1.91362 2.90657 2.08872 2.63782 2.36701 2.3597C2.64843 2.07845 2.91421 1.90657 3.2863 1.76282C3.56772 1.65345 3.99296 1.5222 4.77155 1.48782C5.61266 1.45032 5.86594 1.44095 8.00469 1.44095ZM8.00469 0.000320435C5.83154 0.000320435 5.55951 0.00969543 4.70588 0.0471954C3.85538 0.0846954 3.27067 0.222195 2.76412 0.41907C2.23568 0.62532 1.78855 0.897195 1.34454 1.34407C0.897401 1.78782 0.625366 2.2347 0.418995 2.7597C0.222005 3.26907 0.0844245 3.85032 0.0469025 4.70032C0.0093805 5.55657 0 5.82845 0 8.00032C0 10.1722 0.0093805 10.4441 0.0469025 11.2972C0.0844245 12.1472 0.222005 12.7316 0.418995 13.2378C0.625366 13.7659 0.897401 14.2128 1.34454 14.6566C1.78855 15.1003 2.23568 15.3753 2.76099 15.5784C3.27067 15.7753 3.85226 15.9128 4.70275 15.9503C5.55638 15.9878 5.82841 15.9972 8.00156 15.9972C10.1747 15.9972 10.4467 15.9878 11.3004 15.9503C12.1509 15.9128 12.7356 15.7753 13.2421 15.5784C13.7674 15.3753 14.2146 15.1003 14.6586 14.6566C15.1026 14.2128 15.3778 13.7659 15.581 13.2409C15.778 12.7316 15.9156 12.1503 15.9531 11.3003C15.9906 10.4472 16 10.1753 16 8.00345C16 5.83157 15.9906 5.5597 15.9531 4.70657C15.9156 3.85657 15.778 3.2722 15.581 2.76595C15.384 2.2347 15.112 1.78782 14.6648 1.34407C14.2208 0.90032 13.7737 0.62532 13.2484 0.422195C12.7387 0.22532 12.1571 0.0878204 11.3066 0.0503204C10.4499 0.00969544 10.1778 0.000320435 8.00469 0.000320435Z" fill="#9A9A9A"/>
<path d="M8 3.89095C5.73125 3.89095 3.89062 5.73157 3.89062 8.00032C3.89062 10.2691 5.73125 12.1097 8 12.1097C10.2688 12.1097 12.1094 10.2691 12.1094 8.00032C12.1094 5.73157 10.2688 3.89095 8 3.89095ZM8 10.6659C6.52813 10.6659 5.33437 9.4722 5.33437 8.00032C5.33437 6.52845 6.52813 5.3347 8 5.3347C9.47188 5.3347 10.6656 6.52845 10.6656 8.00032C10.6656 9.4722 9.47188 10.6659 8 10.6659Z" fill="#9A9A9A"/>
<path d="M13.2312 3.72793C13.2312 4.25918 12.8 4.68731 12.2719 4.68731C11.7406 4.68731 11.3125 4.25606 11.3125 3.72793C11.3125 3.19668 11.7438 2.76855 12.2719 2.76855C12.8 2.76855 13.2312 3.19981 13.2312 3.72793Z" fill="#9A9A9A"/>
</g>
<defs>
<clipPath id="clip0_1_1739">
<rect width="16" height="16" fill="white" transform="translate(0 0.000320435)"/>
</clipPath>
</defs>
</svg>
