<svg width="16" height="16" viewBox="0 0 16 16" fill="none" xmlns="http://www.w3.org/2000/svg">
<g clip-path="url(#clip0_1_1740)">
<path d="M14.8156 0.000320435H1.18125C0.528125 0.000320435 0 0.515946 0 1.15345V14.8441C0 15.4816 0.528125 16.0003 1.18125 16.0003H14.8156C15.4688 16.0003 16 15.4816 16 14.8472V1.15345C16 0.515946 15.4688 0.000320435 14.8156 0.000320435ZM4.74687 13.6347H2.37188V5.9972H4.74687V13.6347ZM3.55938 4.95657C2.79688 4.95657 2.18125 4.34095 2.18125 3.58157C2.18125 2.8222 2.79688 2.20657 3.55938 2.20657C4.31875 2.20657 4.93437 2.8222 4.93437 3.58157C4.93437 4.33782 4.31875 4.95657 3.55938 4.95657ZM13.6344 13.6347H11.2625V9.9222C11.2625 9.03782 11.2469 7.8972 10.0281 7.8972C8.79375 7.8972 8.60625 8.86282 8.60625 9.8597V13.6347H6.2375V5.9972H8.5125V7.04095H8.54375C8.85938 6.44095 9.63438 5.80657 10.7875 5.80657C13.1906 5.80657 13.6344 7.38782 13.6344 9.44407V13.6347Z" fill="#9A9A9A"/>
</g>
<defs>
<clipPath id="clip0_1_1740">
<rect width="16" height="16" fill="white" transform="translate(0 0.000320435)"/>
</clipPath>
</defs>
</svg>
